Coordinates
version=1
nRows=7
nColumns=40
inDegrees=yes

Units are S.I. units (second, meters, Newtons, ...)
Angles are in degrees.

endheader
time	pelvis_tilt	pelvis_list	pelvis_rotation	pelvis_tx	pelvis_ty	pelvis_tz	hip_flexion_r	hip_adduction_r	hip_rotation_r	knee_angle_r	knee_angle_r_beta	ankle_angle_r	subtalar_angle_r	mtp_angle_r	hip_flexion_l	hip_adduction_l	hip_rotation_l	knee_angle_l	knee_angle_l_beta	ankle_angle_l	subtalar_angle_l	mtp_angle_l	lumbar_extension	lumbar_bending	lumbar_rotation	arm_flex_r	arm_add_r	arm_rot_r	elbow_flex_r	pro_sup_r	wrist_flex_r	wrist_dev_r	arm_flex_l	arm_add_l	arm_rot_l	elbow_flex_l	pro_sup_l	wrist_flex_l	wrist_dev_l
     32.67750000	     -0.59728284	     -2.97163994	     -3.36004228	      0.96282609	      0.91761354	      0.45932312	     24.84804834	     -6.84502643	     -4.96066425	     65.63700898	     65.63700898	     10.42970406	    -19.36843233	     15.14241412	     15.02128564	     -0.42453878	     -3.27080795	     31.86638721	     31.86638721	     19.79328570	    -18.14369729	      5.94364081	    -11.81022585	      6.78712216	      2.01350553	     10.22065914	    -13.03168820	     -7.75372909	     31.91625652	     46.46768921	      0.00000000	      0.00000000	     22.88960084	    -15.54094418	      8.49759125	     49.57534387	     45.70583481	      0.00000000	      0.00000000
     32.69671429	     -0.57661670	     -3.12103345	     -3.89164308	      0.96210042	      0.91707606	      0.45915249	     26.12760441	     -6.21914440	     -4.46550484	     64.79270938	     64.79270938	     11.61984741	    -19.34460895	     17.26567857	     14.84197645	     -0.52409061	     -3.37461122	     32.46432102	     32.46432102	     21.50807259	    -18.08000970	      9.15314379	    -11.98686969	      7.14061266	      2.15917350	      8.50026830	    -12.46490218	     -9.78372233	     26.19329482	     46.83170560	      0.00000000	      0.00000000	     24.21046747	    -15.57876348	      6.84100760	     52.00378727	     45.96003780	      0.00000000	      0.00000000
     32.71592857	     -0.56470760	     -3.29308563	     -4.42442777	      0.96140640	      0.91716435	      0.45941310	     27.13373592	     -5.61219774	     -4.21337310	     63.19248851	     63.19248851	     12.05751491	    -19.31227369	     16.96593662	     14.31445929	     -0.73739346	     -3.72573861	     32.32372711	     32.32372711	     21.81080460	    -18.13905547	      9.09613309	    -12.20873051	      7.52649339	      2.23159705	      5.45442525	    -12.22904773	    -10.09394292	     24.70078886	     46.89236343	      0.00000000	      0.00000000	     25.81156117	    -16.02372553	      6.21812764	     53.44130482	     46.05619293	      0.00000000	      0.00000000
     32.73514286	     -0.73812250	     -3.44247084	     -4.96155285	      0.96057283	      0.91765459	      0.46012330	     28.17929831	     -4.97724236	     -4.06197015	     61.04893087	     61.04893087	     12.37659167	    -19.24642967	     16.78390719	     13.82627501	     -0.96393196	     -4.10010963	     31.85855787	     31.85855787	     21.99021530	    -18.11223082	      9.11336592	    -12.21955611	      7.83622721	      1.73211928	      2.76315955	    -11.84694792	    -10.22169490	     23.63592397	     46.92285088	      0.00000000	      0.00000000	     27.22317668	    -17.04404587	      5.66113407	     54.30328769	     46.12808432	      0.00000000	      0.00000000
     32.75435714	     -0.81952452	     -3.59731832	     -5.57915178	      0.95987934	      0.91889475	      0.46107799	     28.75530363	     -4.35762119	     -4.02297959	     58.08739568	     58.08739568	     11.68278992	    -19.15087961	     13.66169015	     13.01995949	     -1.20482528	     -4.63373730	     31.01639360	     31.01639360	     21.83395004	    -18.09387043	      8.59416176	    -12.44565625	      8.16032145	      1.77642695	      0.07212490	    -11.56421693	    -11.93115813	     22.67670586	     47.09987738	      0.00000000	      0.00000000	     28.02249212	    -17.52292680	      4.04227675	     57.87019077	     46.36179517	      0.00000000	      0.00000000
     32.77357143	     -1.13250052	     -3.75574700	     -6.17874869	      0.95904118	      0.92031976	      0.46249494	     29.47122139	     -3.57433272	     -3.89617670	     54.83432025	     54.83432025	     11.66434794	    -18.91796087	     13.53931297	     12.36176765	     -1.48423080	     -5.13894148	     29.97437558	     29.97437558	     21.79105389	    -17.93261288	      8.72500833	    -12.30760948	      8.48415755	      1.49106609	     -2.32299509	    -11.37821698	    -12.07507015	     21.79243383	     47.12819631	      0.00000000	      0.00000000	     29.41769160	    -18.39046456	      3.51500267	     58.78540964	     46.43065275	      0.00000000	      0.00000000
     32.79278571	     -1.32236861	     -3.89403090	     -6.84172810	      0.95840318	      0.92218204	      0.46423729	     29.59019537	     -2.93188372	     -4.00387604	     50.72201079	     50.72201079	      9.82063194	    -18.56338657	      7.95259910	     11.35217721	     -1.75493860	     -5.83381634	     28.53210408	     28.53210408	     21.11113023	    -17.82250861	      7.40743545	    -12.47487596	      8.65566174	      1.48107538	     -5.01780536	    -11.19413227	    -13.36733655	     22.18758440	     47.20594746	      0.00000000	      0.00000000	     30.26658556	    -19.03946033	      2.06966241	     61.86687188	     46.64202643	      0.00000000	      0.00000000
